<svg width="77" height="77" viewBox="0 0 77 77" fill="none" xmlns="http://www.w3.org/2000/svg">
    <g clip-path="url(#clip0_7_782)">
        <path d="M68.18 77V3.49365C68.18 1.5605 66.6167 0 64.68 0H3.5C1.56333 0 0 1.5605 0 3.49365V67.637C0 72.8076 4.2 77 9.38 77H68.18Z" fill="#EAEEF9"/>
        <path d="M9.49609 77C14.0228 77 17.7794 73.6461 18.3628 69.2907C18.4561 68.5919 19.0394 68.0562 19.7394 68.0562H75.5761C76.4628 68.0562 77.1161 68.8481 76.9528 69.7099C76.1828 73.8557 72.5194 77 68.1328 77H9.49609Z" fill="#00C4B3"/>
        <path d="M61.0622 62.1171H44.4722C43.9355 62.1171 43.4922 61.6745 43.4922 61.1388C43.4922 60.6031 43.9355 60.1606 44.4722 60.1606H61.0622C61.5989 60.1606 62.0422 60.6031 62.0422 61.1388C62.0422 61.6745 61.5989 62.1171 61.0622 62.1171Z" fill="#00416B"/>
        <path d="M22.1901 28.3218H7.11672C6.58005 28.3218 6.13672 27.8793 6.13672 27.3436C6.13672 26.8079 6.58005 26.3654 7.11672 26.3654H22.1901C22.7267 26.3654 23.1701 26.8079 23.1701 27.3436C23.1701 27.8793 22.7501 28.3218 22.2134 28.3218" fill="#00416B"/>
        <path d="M61.0643 37.6382H27.4409C26.9043 37.6382 26.4609 37.1957 26.4609 36.66C26.4609 36.1243 26.9043 35.6818 27.4409 35.6818H61.0643C61.6009 35.6818 62.0443 36.1243 62.0443 36.66C62.0443 37.1957 61.6009 37.6382 61.0643 37.6382Z" fill="#00416B"/>
        <path d="M21.2101 37.6382H7.11672C6.58005 37.6382 6.13672 37.1957 6.13672 36.66C6.13672 36.1243 6.58005 35.6818 7.11672 35.6818H21.2334C21.7701 35.6818 22.2134 36.1243 22.2134 36.66C22.2134 37.1957 21.7701 37.6382 21.2334 37.6382" fill="#00416B"/>
        <path d="M61.0641 45.464H44.4741C43.9375 45.464 43.4941 45.0215 43.4941 44.4858C43.4941 43.9501 43.9375 43.5076 44.4741 43.5076H61.0641C61.6008 43.5076 62.0441 43.9501 62.0441 44.4858C62.0441 45.0215 61.6008 45.464 61.0641 45.464Z" fill="#00416B"/>
        <path d="M38.2434 45.464H7.11672C6.58005 45.464 6.13672 45.0215 6.13672 44.4858C6.13672 43.9501 6.58005 43.5076 7.11672 43.5076H38.2434C38.7801 43.5076 39.2234 43.9501 39.2234 44.4858C39.2234 45.0215 38.7801 45.464 38.2434 45.464Z" fill="#00416B"/>
        <path d="M61.0643 53.2898H27.4409C26.9043 53.2898 26.4609 52.8473 26.4609 52.3116C26.4609 51.7759 26.9043 51.3333 27.4409 51.3333H61.0643C61.6009 51.3333 62.0443 51.7759 62.0443 52.3116C62.0443 52.8473 61.6009 53.2898 61.0643 53.2898Z" fill="#00416B"/>
        <path d="M21.2101 53.2898H7.11672C6.58005 53.2898 6.13672 52.8473 6.13672 52.3116C6.13672 51.7759 6.58005 51.3333 7.11672 51.3333H21.2334C21.7701 51.3333 22.2134 51.7759 22.2134 52.3116C22.2134 52.8473 21.7701 53.2898 21.2334 53.2898" fill="#00416B"/>
        <path d="M61.0641 62.1171H44.4741C43.9375 62.1171 43.4941 61.6745 43.4941 61.1388C43.4941 60.6031 43.9375 60.1606 44.4741 60.1606H61.0641C61.6008 60.1606 62.0441 60.6031 62.0441 61.1388C62.0441 61.6745 61.6008 62.1171 61.0641 62.1171Z" fill="#00416B"/>
        <path d="M19.9733 11.0865C19.9733 9.2698 19.2499 7.56956 17.9433 6.28855C16.6366 4.98426 14.9099 4.26224 13.0433 4.26224C11.1766 4.26224 9.44995 4.98426 8.14328 6.28855C6.83661 7.59285 6.11328 9.31638 6.11328 11.1797C6.11328 13.0429 6.83661 14.7665 8.14328 16.0708C9.42662 17.3518 11.1066 18.0505 12.9033 18.0971H13.0433C14.8866 18.0971 16.6366 17.3751 17.9433 16.0708L18.1766 15.8379L17.1033 14.7665L16.8699 14.9994C15.8433 16.0242 14.4899 16.5832 13.0433 16.5832C11.5966 16.5832 10.2433 16.0242 9.21662 14.9994C8.18995 13.9746 7.62995 12.6237 7.62995 11.1797C7.62995 9.73562 8.18995 8.38474 9.21662 7.35994C10.2433 6.33514 11.5966 5.77615 13.0433 5.77615C14.4899 5.77615 15.8433 6.33514 16.8699 7.35994C17.7099 8.19841 18.2466 9.2698 18.4099 10.4343H17.2899C17.1266 9.57258 16.7299 8.78069 16.0999 8.15183C15.2833 7.33665 14.2099 6.89412 13.0666 6.89412C11.9233 6.89412 10.8499 7.33665 10.0333 8.15183C9.21662 8.96702 8.77328 10.0384 8.77328 11.1797C8.77328 12.3209 9.21662 13.3923 10.0333 14.2075C10.8266 14.9994 11.8766 15.4419 12.9966 15.4652H13.0666C14.2099 15.4652 15.2833 15.0227 16.0999 14.2075L16.3333 13.9746L15.2599 12.9032L15.0266 13.1361C14.4899 13.6718 13.7899 13.9513 13.0433 13.9513C12.2966 13.9513 11.5966 13.6485 11.0599 13.1361C10.7099 12.7867 10.4766 12.3675 10.3366 11.925H19.9499V11.1098M13.0433 10.4111H10.3599C10.4766 9.94524 10.7333 9.526 11.0833 9.19993C11.6199 8.66423 12.3199 8.38474 13.0666 8.38474C13.8133 8.38474 14.5133 8.66423 15.0499 9.19993C15.3999 9.54929 15.6333 9.96853 15.7733 10.4111H13.0899H13.0433Z" fill="#00416B"/>
    </g>
    <defs>
        <clipPath id="clip0_7_782">
            <rect width="77" height="77" fill="white"/>
        </clipPath>
    </defs>
</svg>
